<mxfile host="app.diagrams.net" agent="Mozilla/5.0 (Windows NT 10.0; Win64; x64) AppleWebKit/537.36 (KHTML, like Gecko) Chrome/131.0.0.0 Safari/537.36 Edg/131.0.0.0" version="25.0.3">
  <diagram id="C5RBs43oDa-KdzZeNtuy" name="Page-1">
    <mxGraphModel dx="2275.4" dy="919" grid="1" gridSize="10" guides="1" tooltips="1" connect="1" arrows="1" fold="1" page="1" pageScale="1.2" pageWidth="827" pageHeight="1169" math="0" shadow="0">
      <root>
        <mxCell id="WIyWlLk6GJQsqaUBKTNV-0" />
        <mxCell id="WIyWlLk6GJQsqaUBKTNV-1" parent="WIyWlLk6GJQsqaUBKTNV-0" />
        <mxCell id="6llJKy_Ln6YBQ7tboQbZ-1" value="" style="edgeStyle=orthogonalEdgeStyle;rounded=0;orthogonalLoop=1;jettySize=auto;html=1;" parent="WIyWlLk6GJQsqaUBKTNV-1" source="WIyWlLk6GJQsqaUBKTNV-3" target="6llJKy_Ln6YBQ7tboQbZ-0" edge="1">
          <mxGeometry relative="1" as="geometry" />
        </mxCell>
        <mxCell id="WIyWlLk6GJQsqaUBKTNV-3" value="1. Inicio" style="rounded=1;whiteSpace=wrap;html=1;fontSize=12;glass=0;strokeWidth=1;shadow=0;fillColor=#CCFFFF;" parent="WIyWlLk6GJQsqaUBKTNV-1" vertex="1">
          <mxGeometry x="162" y="30" width="120" height="40" as="geometry" />
        </mxCell>
        <mxCell id="6llJKy_Ln6YBQ7tboQbZ-24" style="edgeStyle=orthogonalEdgeStyle;rounded=0;orthogonalLoop=1;jettySize=auto;html=1;entryX=0.5;entryY=0;entryDx=0;entryDy=0;" parent="WIyWlLk6GJQsqaUBKTNV-1" source="WIyWlLk6GJQsqaUBKTNV-6" target="6llJKy_Ln6YBQ7tboQbZ-19" edge="1">
          <mxGeometry relative="1" as="geometry" />
        </mxCell>
        <mxCell id="6llJKy_Ln6YBQ7tboQbZ-44" style="edgeStyle=orthogonalEdgeStyle;rounded=0;orthogonalLoop=1;jettySize=auto;html=1;entryX=0;entryY=0.5;entryDx=0;entryDy=0;" parent="WIyWlLk6GJQsqaUBKTNV-1" source="WIyWlLk6GJQsqaUBKTNV-6" target="6llJKy_Ln6YBQ7tboQbZ-0" edge="1">
          <mxGeometry relative="1" as="geometry">
            <Array as="points">
              <mxPoint x="-40" y="855" />
              <mxPoint x="-40" y="131" />
            </Array>
          </mxGeometry>
        </mxCell>
        <mxCell id="WIyWlLk6GJQsqaUBKTNV-6" value="" style="rhombus;whiteSpace=wrap;html=1;shadow=0;fontFamily=Helvetica;fontSize=12;align=center;strokeWidth=1;spacing=6;spacingTop=-4;fillColor=#FFFFCC;" parent="WIyWlLk6GJQsqaUBKTNV-1" vertex="1">
          <mxGeometry x="19.5" y="790" width="177" height="130" as="geometry" />
        </mxCell>
        <mxCell id="6llJKy_Ln6YBQ7tboQbZ-22" value="" style="edgeStyle=orthogonalEdgeStyle;rounded=0;orthogonalLoop=1;jettySize=auto;html=1;" parent="WIyWlLk6GJQsqaUBKTNV-1" source="6llJKy_Ln6YBQ7tboQbZ-0" target="6llJKy_Ln6YBQ7tboQbZ-21" edge="1">
          <mxGeometry relative="1" as="geometry" />
        </mxCell>
        <mxCell id="6llJKy_Ln6YBQ7tboQbZ-0" value="2. Identificación de estaciones críticas" style="rounded=1;whiteSpace=wrap;html=1;fontSize=12;glass=0;strokeWidth=1;shadow=0;fillColor=#CCFFFF;" parent="WIyWlLk6GJQsqaUBKTNV-1" vertex="1">
          <mxGeometry x="162" y="111" width="120" height="39" as="geometry" />
        </mxCell>
        <mxCell id="6llJKy_Ln6YBQ7tboQbZ-9" value="" style="edgeStyle=orthogonalEdgeStyle;rounded=0;orthogonalLoop=1;jettySize=auto;html=1;" parent="WIyWlLk6GJQsqaUBKTNV-1" source="6llJKy_Ln6YBQ7tboQbZ-2" target="6llJKy_Ln6YBQ7tboQbZ-8" edge="1">
          <mxGeometry relative="1" as="geometry" />
        </mxCell>
        <mxCell id="6llJKy_Ln6YBQ7tboQbZ-2" value="3. Elección con probabilidades de estación a visitar" style="rounded=1;whiteSpace=wrap;html=1;fontSize=12;glass=0;strokeWidth=1;shadow=0;fillColor=#CCFFFF;" parent="WIyWlLk6GJQsqaUBKTNV-1" vertex="1">
          <mxGeometry x="48" y="460" width="122" height="53" as="geometry" />
        </mxCell>
        <mxCell id="6llJKy_Ln6YBQ7tboQbZ-18" value="" style="edgeStyle=orthogonalEdgeStyle;rounded=0;orthogonalLoop=1;jettySize=auto;html=1;" parent="WIyWlLk6GJQsqaUBKTNV-1" source="6llJKy_Ln6YBQ7tboQbZ-8" target="6llJKy_Ln6YBQ7tboQbZ-10" edge="1">
          <mxGeometry relative="1" as="geometry" />
        </mxCell>
        <mxCell id="6llJKy_Ln6YBQ7tboQbZ-8" value="5.Visita estación" style="rounded=1;whiteSpace=wrap;html=1;fontSize=12;glass=0;strokeWidth=1;shadow=0;fillColor=#CCFFFF;" parent="WIyWlLk6GJQsqaUBKTNV-1" vertex="1">
          <mxGeometry x="48" y="550" width="120" height="40" as="geometry" />
        </mxCell>
        <mxCell id="6llJKy_Ln6YBQ7tboQbZ-12" value="" style="edgeStyle=orthogonalEdgeStyle;rounded=0;orthogonalLoop=1;jettySize=auto;html=1;" parent="WIyWlLk6GJQsqaUBKTNV-1" source="6llJKy_Ln6YBQ7tboQbZ-10" target="6llJKy_Ln6YBQ7tboQbZ-11" edge="1">
          <mxGeometry relative="1" as="geometry" />
        </mxCell>
        <mxCell id="6llJKy_Ln6YBQ7tboQbZ-10" value="6. Actualización de variables" style="rounded=1;whiteSpace=wrap;html=1;fontSize=12;glass=0;strokeWidth=1;shadow=0;fillColor=#CCFFFF;" parent="WIyWlLk6GJQsqaUBKTNV-1" vertex="1">
          <mxGeometry x="48" y="630" width="120" height="40" as="geometry" />
        </mxCell>
        <mxCell id="6llJKy_Ln6YBQ7tboQbZ-13" value="" style="edgeStyle=orthogonalEdgeStyle;rounded=0;orthogonalLoop=1;jettySize=auto;html=1;" parent="WIyWlLk6GJQsqaUBKTNV-1" source="6llJKy_Ln6YBQ7tboQbZ-11" target="WIyWlLk6GJQsqaUBKTNV-6" edge="1">
          <mxGeometry relative="1" as="geometry" />
        </mxCell>
        <mxCell id="6llJKy_Ln6YBQ7tboQbZ-11" value="7. Verificación jornada laboral" style="rounded=1;whiteSpace=wrap;html=1;fontSize=12;glass=0;strokeWidth=1;shadow=0;fillColor=#CCFFFF;" parent="WIyWlLk6GJQsqaUBKTNV-1" vertex="1">
          <mxGeometry x="48" y="710" width="120" height="40" as="geometry" />
        </mxCell>
        <mxCell id="6llJKy_Ln6YBQ7tboQbZ-14" value="&lt;div style=&quot;&quot;&gt;&lt;span style=&quot;background-color: initial;&quot;&gt;¿&lt;/span&gt;&lt;span style=&quot;background-color: initial;&quot;&gt;Se puede visitar más estaciones cumpliendo el tiempo?&lt;/span&gt;&lt;/div&gt;" style="text;html=1;align=center;verticalAlign=middle;whiteSpace=wrap;rounded=0;" parent="WIyWlLk6GJQsqaUBKTNV-1" vertex="1">
          <mxGeometry x="59" y="843" width="98" height="30" as="geometry" />
        </mxCell>
        <mxCell id="6llJKy_Ln6YBQ7tboQbZ-19" value="8. Fin" style="rounded=1;whiteSpace=wrap;html=1;fontSize=12;glass=0;strokeWidth=1;shadow=0;fillColor=#CCFFFF;" parent="WIyWlLk6GJQsqaUBKTNV-1" vertex="1">
          <mxGeometry x="48" y="1046" width="120" height="40" as="geometry" />
        </mxCell>
        <mxCell id="6llJKy_Ln6YBQ7tboQbZ-40" value="" style="edgeStyle=orthogonalEdgeStyle;rounded=0;orthogonalLoop=1;jettySize=auto;html=1;" parent="WIyWlLk6GJQsqaUBKTNV-1" source="6llJKy_Ln6YBQ7tboQbZ-20" target="6llJKy_Ln6YBQ7tboQbZ-38" edge="1">
          <mxGeometry relative="1" as="geometry" />
        </mxCell>
        <mxCell id="6llJKy_Ln6YBQ7tboQbZ-20" value="4. Identificación de estaciones en semi-riesgo" style="rounded=1;whiteSpace=wrap;html=1;fontSize=12;glass=0;strokeWidth=1;shadow=0;fillColor=#CCFFFF;" parent="WIyWlLk6GJQsqaUBKTNV-1" vertex="1">
          <mxGeometry x="277" y="310" width="150" height="50" as="geometry" />
        </mxCell>
        <mxCell id="6llJKy_Ln6YBQ7tboQbZ-23" style="edgeStyle=orthogonalEdgeStyle;rounded=0;orthogonalLoop=1;jettySize=auto;html=1;" parent="WIyWlLk6GJQsqaUBKTNV-1" source="6llJKy_Ln6YBQ7tboQbZ-21" target="6llJKy_Ln6YBQ7tboQbZ-2" edge="1">
          <mxGeometry relative="1" as="geometry">
            <Array as="points">
              <mxPoint x="223" y="280" />
              <mxPoint x="108" y="280" />
            </Array>
          </mxGeometry>
        </mxCell>
        <mxCell id="6llJKy_Ln6YBQ7tboQbZ-30" style="edgeStyle=orthogonalEdgeStyle;rounded=0;orthogonalLoop=1;jettySize=auto;html=1;" parent="WIyWlLk6GJQsqaUBKTNV-1" source="6llJKy_Ln6YBQ7tboQbZ-21" target="6llJKy_Ln6YBQ7tboQbZ-20" edge="1">
          <mxGeometry relative="1" as="geometry">
            <Array as="points">
              <mxPoint x="223" y="280" />
              <mxPoint x="352" y="280" />
            </Array>
          </mxGeometry>
        </mxCell>
        <mxCell id="6llJKy_Ln6YBQ7tboQbZ-21" value="¿Existen?" style="rhombus;whiteSpace=wrap;html=1;shadow=0;fontFamily=Helvetica;fontSize=12;align=center;strokeWidth=1;spacing=6;spacingTop=-4;fillColor=#FFFFCC;" parent="WIyWlLk6GJQsqaUBKTNV-1" vertex="1">
          <mxGeometry x="181" y="190" width="83" height="70" as="geometry" />
        </mxCell>
        <mxCell id="6llJKy_Ln6YBQ7tboQbZ-43" style="edgeStyle=orthogonalEdgeStyle;rounded=0;orthogonalLoop=1;jettySize=auto;html=1;exitX=0.5;exitY=1;exitDx=0;exitDy=0;entryX=1;entryY=0.5;entryDx=0;entryDy=0;" parent="WIyWlLk6GJQsqaUBKTNV-1" source="6llJKy_Ln6YBQ7tboQbZ-38" target="6llJKy_Ln6YBQ7tboQbZ-10" edge="1">
          <mxGeometry relative="1" as="geometry" />
        </mxCell>
        <mxCell id="gG4BEeGUgqHvGDEfn0Wk-12" style="edgeStyle=orthogonalEdgeStyle;rounded=0;orthogonalLoop=1;jettySize=auto;html=1;entryX=1;entryY=0.75;entryDx=0;entryDy=0;" edge="1" parent="WIyWlLk6GJQsqaUBKTNV-1" source="6llJKy_Ln6YBQ7tboQbZ-38" target="6llJKy_Ln6YBQ7tboQbZ-2">
          <mxGeometry relative="1" as="geometry">
            <Array as="points">
              <mxPoint x="352" y="500" />
            </Array>
          </mxGeometry>
        </mxCell>
        <mxCell id="6llJKy_Ln6YBQ7tboQbZ-38" value="¿Existen?" style="rhombus;whiteSpace=wrap;html=1;shadow=0;fontFamily=Helvetica;fontSize=12;align=center;strokeWidth=1;spacing=6;spacingTop=-4;fillColor=#FFFFCC;" parent="WIyWlLk6GJQsqaUBKTNV-1" vertex="1">
          <mxGeometry x="310.5" y="390" width="83" height="70" as="geometry" />
        </mxCell>
        <mxCell id="6llJKy_Ln6YBQ7tboQbZ-48" value="" style="edgeStyle=orthogonalEdgeStyle;rounded=0;orthogonalLoop=1;jettySize=auto;html=1;" parent="WIyWlLk6GJQsqaUBKTNV-1" source="6llJKy_Ln6YBQ7tboQbZ-45" target="6llJKy_Ln6YBQ7tboQbZ-47" edge="1">
          <mxGeometry relative="1" as="geometry" />
        </mxCell>
        <mxCell id="6llJKy_Ln6YBQ7tboQbZ-45" value="3.1. Elección aleatoria entre lista de estaciones&amp;nbsp;&lt;div&gt;saturadas/desabastecidas&lt;/div&gt;" style="rounded=1;whiteSpace=wrap;html=1;fontSize=12;glass=0;strokeWidth=1;shadow=0;fillColor=#CCFFFF;" parent="WIyWlLk6GJQsqaUBKTNV-1" vertex="1">
          <mxGeometry x="595" y="100" width="150" height="60" as="geometry" />
        </mxCell>
        <mxCell id="6llJKy_Ln6YBQ7tboQbZ-57" style="edgeStyle=orthogonalEdgeStyle;rounded=0;orthogonalLoop=1;jettySize=auto;html=1;entryX=0.5;entryY=0;entryDx=0;entryDy=0;" parent="WIyWlLk6GJQsqaUBKTNV-1" source="6llJKy_Ln6YBQ7tboQbZ-47" target="6llJKy_Ln6YBQ7tboQbZ-51" edge="1">
          <mxGeometry relative="1" as="geometry" />
        </mxCell>
        <mxCell id="6llJKy_Ln6YBQ7tboQbZ-47" value="3.2. Elección entre las n estaciones de la lista seleccionada&lt;div&gt;(con probabilidades)&lt;/div&gt;" style="rounded=1;whiteSpace=wrap;html=1;fontSize=12;glass=0;strokeWidth=1;shadow=0;fillColor=#CCFFFF;" parent="WIyWlLk6GJQsqaUBKTNV-1" vertex="1">
          <mxGeometry x="595" y="200" width="150" height="70" as="geometry" />
        </mxCell>
        <mxCell id="6llJKy_Ln6YBQ7tboQbZ-60" style="edgeStyle=orthogonalEdgeStyle;rounded=0;orthogonalLoop=1;jettySize=auto;html=1;" parent="WIyWlLk6GJQsqaUBKTNV-1" source="6llJKy_Ln6YBQ7tboQbZ-51" target="6llJKy_Ln6YBQ7tboQbZ-59" edge="1">
          <mxGeometry relative="1" as="geometry">
            <Array as="points">
              <mxPoint x="670" y="490" />
              <mxPoint x="570" y="490" />
            </Array>
          </mxGeometry>
        </mxCell>
        <mxCell id="6llJKy_Ln6YBQ7tboQbZ-95" style="edgeStyle=orthogonalEdgeStyle;rounded=0;orthogonalLoop=1;jettySize=auto;html=1;exitX=0.5;exitY=1;exitDx=0;exitDy=0;entryX=0.5;entryY=0;entryDx=0;entryDy=0;" parent="WIyWlLk6GJQsqaUBKTNV-1" source="6llJKy_Ln6YBQ7tboQbZ-51" edge="1">
          <mxGeometry relative="1" as="geometry">
            <Array as="points">
              <mxPoint x="670" y="490" />
              <mxPoint x="762" y="490" />
            </Array>
            <mxPoint x="762" y="513" as="targetPoint" />
          </mxGeometry>
        </mxCell>
        <mxCell id="6llJKy_Ln6YBQ7tboQbZ-51" value="" style="rhombus;whiteSpace=wrap;html=1;shadow=0;fontFamily=Helvetica;fontSize=12;align=center;strokeWidth=1;spacing=6;spacingTop=-4;fillColor=#FFFFCC;" parent="WIyWlLk6GJQsqaUBKTNV-1" vertex="1">
          <mxGeometry x="605" y="324" width="130" height="130" as="geometry" />
        </mxCell>
        <mxCell id="6llJKy_Ln6YBQ7tboQbZ-53" value="¿El camión cumple la restricción de capacidad?" style="text;html=1;align=center;verticalAlign=middle;whiteSpace=wrap;rounded=0;" parent="WIyWlLk6GJQsqaUBKTNV-1" vertex="1">
          <mxGeometry x="625" y="364" width="90" height="50" as="geometry" />
        </mxCell>
        <mxCell id="6llJKy_Ln6YBQ7tboQbZ-54" style="edgeStyle=orthogonalEdgeStyle;rounded=0;orthogonalLoop=1;jettySize=auto;html=1;exitX=0.5;exitY=1;exitDx=0;exitDy=0;" parent="WIyWlLk6GJQsqaUBKTNV-1" source="6llJKy_Ln6YBQ7tboQbZ-51" target="6llJKy_Ln6YBQ7tboQbZ-51" edge="1">
          <mxGeometry relative="1" as="geometry" />
        </mxCell>
        <mxCell id="6llJKy_Ln6YBQ7tboQbZ-59" value="3.3. Se elige esta estación" style="rounded=1;whiteSpace=wrap;html=1;fontSize=12;glass=0;strokeWidth=1;shadow=0;fillColor=#CCFFFF;" parent="WIyWlLk6GJQsqaUBKTNV-1" vertex="1">
          <mxGeometry x="500" y="515" width="140" height="70" as="geometry" />
        </mxCell>
        <mxCell id="6llJKy_Ln6YBQ7tboQbZ-65" value="SI" style="text;html=1;align=center;verticalAlign=middle;whiteSpace=wrap;rounded=0;fillColor=#CCCCCC;" parent="WIyWlLk6GJQsqaUBKTNV-1" vertex="1">
          <mxGeometry x="168" y="260" width="50" height="20" as="geometry" />
        </mxCell>
        <mxCell id="6llJKy_Ln6YBQ7tboQbZ-66" value="NO" style="text;html=1;align=center;verticalAlign=middle;whiteSpace=wrap;rounded=0;fillColor=#CCCCCC;" parent="WIyWlLk6GJQsqaUBKTNV-1" vertex="1">
          <mxGeometry x="228" y="260" width="50" height="20" as="geometry" />
        </mxCell>
        <mxCell id="6llJKy_Ln6YBQ7tboQbZ-67" value="SI" style="text;html=1;align=center;verticalAlign=middle;whiteSpace=wrap;rounded=0;fillColor=#CCCCCC;" parent="WIyWlLk6GJQsqaUBKTNV-1" vertex="1">
          <mxGeometry x="300" y="478" width="50" height="20" as="geometry" />
        </mxCell>
        <mxCell id="6llJKy_Ln6YBQ7tboQbZ-68" value="NO" style="text;html=1;align=center;verticalAlign=middle;whiteSpace=wrap;rounded=0;fillColor=#CCCCCC;" parent="WIyWlLk6GJQsqaUBKTNV-1" vertex="1">
          <mxGeometry x="108" y="926" width="50" height="20" as="geometry" />
        </mxCell>
        <mxCell id="6llJKy_Ln6YBQ7tboQbZ-70" value="SI" style="text;html=1;align=center;verticalAlign=middle;whiteSpace=wrap;rounded=0;fillColor=#CCCCCC;" parent="WIyWlLk6GJQsqaUBKTNV-1" vertex="1">
          <mxGeometry x="616" y="470" width="50" height="20" as="geometry" />
        </mxCell>
        <mxCell id="6llJKy_Ln6YBQ7tboQbZ-71" value="NO" style="text;html=1;align=center;verticalAlign=middle;whiteSpace=wrap;rounded=0;fillColor=#CCCCCC;" parent="WIyWlLk6GJQsqaUBKTNV-1" vertex="1">
          <mxGeometry x="677" y="470" width="50" height="20" as="geometry" />
        </mxCell>
        <mxCell id="6llJKy_Ln6YBQ7tboQbZ-75" value="SI" style="text;html=1;align=center;verticalAlign=middle;whiteSpace=wrap;rounded=0;fillColor=#CCCCCC;" parent="WIyWlLk6GJQsqaUBKTNV-1" vertex="1">
          <mxGeometry x="-35" y="834" width="50" height="20" as="geometry" />
        </mxCell>
        <mxCell id="6llJKy_Ln6YBQ7tboQbZ-81" value="&lt;font color=&quot;#ffffff&quot;&gt;.&lt;/font&gt;" style="text;html=1;align=center;verticalAlign=middle;whiteSpace=wrap;rounded=0;" parent="WIyWlLk6GJQsqaUBKTNV-1" vertex="1">
          <mxGeometry x="780" y="90" width="60" height="30" as="geometry" />
        </mxCell>
        <mxCell id="6llJKy_Ln6YBQ7tboQbZ-83" value="NO" style="text;html=1;align=center;verticalAlign=middle;whiteSpace=wrap;rounded=0;fillColor=#CCCCCC;" parent="WIyWlLk6GJQsqaUBKTNV-1" vertex="1">
          <mxGeometry x="300" y="630" width="50" height="20" as="geometry" />
        </mxCell>
        <mxCell id="6llJKy_Ln6YBQ7tboQbZ-92" value="3.4. Se elige estación" style="rounded=1;whiteSpace=wrap;html=1;fontSize=12;glass=0;strokeWidth=1;shadow=0;fillColor=#CCFFFF;" parent="WIyWlLk6GJQsqaUBKTNV-1" vertex="1">
          <mxGeometry x="575" y="710" width="140" height="70" as="geometry" />
        </mxCell>
        <mxCell id="6llJKy_Ln6YBQ7tboQbZ-98" value="3.5&amp;nbsp; Actualización de variables (salto al paso 6 del algoritmo principal)" style="rounded=1;whiteSpace=wrap;html=1;fontSize=12;glass=0;strokeWidth=1;shadow=0;fillColor=#CCFFFF;" parent="WIyWlLk6GJQsqaUBKTNV-1" vertex="1">
          <mxGeometry x="790" y="711" width="140" height="70" as="geometry" />
        </mxCell>
        <mxCell id="6llJKy_Ln6YBQ7tboQbZ-100" value="SI" style="text;html=1;align=center;verticalAlign=middle;whiteSpace=wrap;rounded=0;fillColor=#CCCCCC;" parent="WIyWlLk6GJQsqaUBKTNV-1" vertex="1">
          <mxGeometry x="704" y="649" width="50" height="20" as="geometry" />
        </mxCell>
        <mxCell id="6llJKy_Ln6YBQ7tboQbZ-102" value="NO" style="text;html=1;align=center;verticalAlign=middle;whiteSpace=wrap;rounded=0;fillColor=#CCCCCC;" parent="WIyWlLk6GJQsqaUBKTNV-1" vertex="1">
          <mxGeometry x="769" y="649" width="50" height="20" as="geometry" />
        </mxCell>
        <mxCell id="gG4BEeGUgqHvGDEfn0Wk-2" value="&lt;span style=&quot;text-align: justify;&quot;&gt;Se explica con más detalle el proceso número 3 del algoritmo principal.&lt;/span&gt;" style="shape=ext;double=1;rounded=0;whiteSpace=wrap;html=1;fillColor=none;" vertex="1" parent="WIyWlLk6GJQsqaUBKTNV-1">
          <mxGeometry x="561" y="30" width="210" height="60" as="geometry" />
        </mxCell>
        <mxCell id="gG4BEeGUgqHvGDEfn0Wk-9" style="edgeStyle=orthogonalEdgeStyle;rounded=0;orthogonalLoop=1;jettySize=auto;html=1;exitX=0.5;exitY=1;exitDx=0;exitDy=0;entryX=0.5;entryY=0;entryDx=0;entryDy=0;" edge="1" parent="WIyWlLk6GJQsqaUBKTNV-1" source="gG4BEeGUgqHvGDEfn0Wk-6" target="6llJKy_Ln6YBQ7tboQbZ-92">
          <mxGeometry relative="1" as="geometry">
            <Array as="points">
              <mxPoint x="761" y="670" />
              <mxPoint x="645" y="670" />
            </Array>
          </mxGeometry>
        </mxCell>
        <mxCell id="gG4BEeGUgqHvGDEfn0Wk-11" style="edgeStyle=orthogonalEdgeStyle;rounded=0;orthogonalLoop=1;jettySize=auto;html=1;" edge="1" parent="WIyWlLk6GJQsqaUBKTNV-1" source="gG4BEeGUgqHvGDEfn0Wk-6" target="6llJKy_Ln6YBQ7tboQbZ-98">
          <mxGeometry relative="1" as="geometry">
            <Array as="points">
              <mxPoint x="761" y="670" />
              <mxPoint x="860" y="670" />
            </Array>
          </mxGeometry>
        </mxCell>
        <mxCell id="gG4BEeGUgqHvGDEfn0Wk-6" value="" style="rhombus;whiteSpace=wrap;html=1;shadow=0;fontFamily=Helvetica;fontSize=12;align=center;strokeWidth=1;spacing=6;spacingTop=-4;fillColor=#FFFFCC;" vertex="1" parent="WIyWlLk6GJQsqaUBKTNV-1">
          <mxGeometry x="692" y="512" width="138" height="128" as="geometry" />
        </mxCell>
        <mxCell id="gG4BEeGUgqHvGDEfn0Wk-7" value="¿Existen estaciones en el grupo contrario?" style="text;html=1;align=center;verticalAlign=middle;whiteSpace=wrap;rounded=0;" vertex="1" parent="WIyWlLk6GJQsqaUBKTNV-1">
          <mxGeometry x="708" y="551.25" width="105" height="40.75" as="geometry" />
        </mxCell>
      </root>
    </mxGraphModel>
  </diagram>
</mxfile>
